<svg width="512" height="512" viewBox="0 0 512 512" fill="none" xmlns="http://www.w3.org/2000/svg">
<rect width="512" height="512" rx="100" fill="url(#paint0_linear)"/>
<path d="M120 160C120 137.909 137.909 120 160 120H352C374.091 120 392 137.909 392 160V352C392 374.091 374.091 392 352 392H160C137.909 392 120 374.091 120 352V160Z" fill="white" fill-opacity="0.1"/>
<path d="M256 180L160 330H352L256 180Z" fill="white" fill-opacity="0.8"/>
<circle cx="256" cy="220" r="30" fill="white"/>
<path d="M160 330L210 250L260 330H160Z" fill="#FFD700"/>
<path d="M352 330L302 250L252 330H352Z" fill="#00BFFF"/>
<defs>
<linearGradient id="paint0_linear" x1="0" y1="0" x2="512" y2="512" gradientUnits="userSpaceOnUse">
<stop stop-color="#6366F1"/>
<stop offset="1" stop-color="#A855F7"/>
</linearGradient>
</defs>
</svg>
